<svg width="363" height="349" viewBox="0 0 363 349" fill="none" xmlns="http://www.w3.org/2000/svg">
<g clip-path="url(#clip0_0_220)">
<path d="M285.344 63.407C303.012 50.3275 327.887 45.3134 347.35 55.5173C325.439 65.0511 307.599 82.0445 296.987 103.491C292.924 111.777 289.267 121.416 280.884 125.246C275.668 127.629 269.513 127.168 264.112 125.244C258.711 123.32 253.906 120.052 249.169 116.817L247.748 116.646C256.179 96.3192 267.677 76.4865 285.344 63.407Z" fill="#F0F0F0"/>
<path d="M347.192 55.951C329.02 56.5216 311.489 62.8159 297.089 73.9399C293.947 76.2794 291.192 79.1008 288.926 82.3C286.82 85.4879 285.604 89.183 285.404 93.0013C285.147 96.5578 285.294 100.226 284.178 103.657C283.581 105.405 282.622 107.007 281.364 108.358C280.106 109.709 278.577 110.778 276.878 111.494C272.69 113.391 268.071 113.667 263.546 113.779C258.521 113.904 253.3 113.954 248.73 116.325C248.177 116.612 247.764 115.735 248.317 115.448C256.268 111.322 265.558 114.014 273.915 111.559C277.814 110.413 281.392 108.083 282.958 104.184C284.327 100.775 284.178 96.9928 284.407 93.3896C284.548 89.6619 285.597 86.0252 287.463 82.7974C289.558 79.4929 292.2 76.5699 295.274 74.1536C302.109 68.6031 309.773 64.164 317.983 60.999C327.334 57.3348 337.242 55.3006 347.277 54.9844C347.899 54.9651 347.81 55.9318 347.192 55.951V55.951Z" fill="white"/>
<path d="M301.516 70.0848C299.981 67.4103 299.446 64.2763 300.004 61.2425C300.563 58.2086 302.179 55.4726 304.565 53.5228C305.049 53.13 305.681 53.8654 305.196 54.2588C302.971 56.0702 301.466 58.619 300.951 61.4452C300.437 64.2713 300.948 67.1886 302.391 69.6706C302.704 70.2103 301.827 70.6214 301.516 70.0847V70.0848Z" fill="white"/>
<path d="M285.298 91.1809C291.359 92.8785 297.835 92.2245 303.436 89.3494C303.991 89.0641 304.404 89.9418 303.85 90.2267C298.016 93.2078 291.274 93.8746 284.972 92.0941C284.371 91.924 284.701 91.0117 285.298 91.1809Z" fill="white"/>
<path d="M327.289 58.6205C327.667 59.7793 328.327 60.8257 329.209 61.6658C330.091 62.5059 331.167 63.1134 332.341 63.4336C332.943 63.596 332.613 64.5082 332.014 64.3469C330.719 63.987 329.531 63.3146 328.555 62.3886C327.578 61.4626 326.843 60.3111 326.413 59.0346C326.363 58.9177 326.358 58.7859 326.401 58.6659C326.444 58.546 326.531 58.4469 326.644 58.3889C326.76 58.3346 326.893 58.3285 327.014 58.3719C327.135 58.4152 327.233 58.5046 327.289 58.6205H327.289Z" fill="white"/>
<path d="M362.781 128.426C362.402 128.335 362.023 128.245 361.637 128.159C356.535 126.967 351.343 126.191 346.115 125.841C345.711 125.808 345.302 125.78 344.898 125.758C332.293 125.049 319.666 126.691 307.66 130.6C302.883 132.161 298.232 134.083 293.747 136.35C287.553 139.482 281.085 143.371 274.417 144.244C273.722 144.343 273.022 144.398 272.32 144.411L247.649 118.396C247.623 118.309 247.59 118.227 247.564 118.139L246.531 117.146C246.754 117.013 246.989 116.879 247.212 116.746C247.341 116.668 247.476 116.596 247.605 116.519C247.693 116.469 247.781 116.419 247.857 116.369C247.886 116.352 247.916 116.335 247.939 116.324C248.015 116.274 248.092 116.236 248.162 116.191C249.47 115.443 250.785 114.702 252.108 113.969C252.114 113.964 252.114 113.964 252.125 113.964C262.219 108.406 272.864 103.644 283.892 100.653C284.224 100.563 284.561 100.467 284.904 100.389C289.882 99.0687 294.96 98.158 300.086 97.6663C302.894 97.4061 305.714 97.2886 308.533 97.3141C315.819 97.394 323.047 98.622 329.952 100.953C343.716 105.601 355.844 114.61 362.297 127.441C362.462 127.769 362.622 128.092 362.781 128.426Z" fill="#F0F0F0"/>
<path d="M362.396 128.681C347.543 118.172 329.764 112.62 311.584 112.814C307.669 112.786 303.775 113.376 300.044 114.564C296.446 115.838 293.255 118.055 290.802 120.983C288.46 123.667 286.374 126.685 283.421 128.752C281.894 129.787 280.166 130.488 278.35 130.807C276.534 131.126 274.671 131.057 272.884 130.604C268.4 129.592 264.547 127.026 260.866 124.385C256.779 121.453 252.581 118.342 247.507 117.478C246.893 117.373 247.091 116.424 247.705 116.528C256.531 118.032 262.332 125.786 270.479 128.868C274.281 130.306 278.538 130.604 282.13 128.436C285.271 126.54 287.425 123.43 289.773 120.692C292.124 117.8 295.147 115.529 298.576 114.078C302.235 112.704 306.1 111.964 310.006 111.889C318.798 111.582 327.584 112.661 336.041 115.088C345.709 117.804 354.841 122.158 363.044 127.96C363.552 128.32 362.9 129.038 362.396 128.681L362.396 128.681Z" fill="white"/>
<path d="M317.434 112.406C317.816 109.345 319.271 106.52 321.54 104.434C323.808 102.349 326.743 101.14 329.819 101.022C330.441 101.001 330.504 101.969 329.881 101.991C327.016 102.095 324.283 103.221 322.174 105.168C320.066 107.114 318.721 109.751 318.382 112.604C318.308 113.224 317.361 113.023 317.434 112.406H317.434Z" fill="white"/>
<path d="M291.811 119.465C295.63 124.477 301.194 127.863 307.394 128.947C308.008 129.053 307.81 130.003 307.196 129.896C300.747 128.757 294.964 125.222 291.002 119.997C290.624 119.499 291.436 118.97 291.811 119.465V119.465Z" fill="white"/>
<path d="M344.9 118.803C344.506 119.957 344.404 121.19 344.603 122.393C344.803 123.596 345.297 124.73 346.042 125.695C346.425 126.188 345.613 126.716 345.232 126.226C344.414 125.158 343.87 123.904 343.647 122.576C343.423 121.247 343.528 119.884 343.952 118.606C343.982 118.482 344.058 118.374 344.164 118.304C344.27 118.234 344.399 118.208 344.524 118.23C344.65 118.256 344.759 118.332 344.83 118.439C344.9 118.546 344.925 118.677 344.9 118.803V118.803Z" fill="white"/>
<path d="M280.682 82.865H278.771V30.3781C278.771 26.3888 277.987 22.4385 276.463 18.7529C274.94 15.0672 272.707 11.7184 269.892 8.89753C267.077 6.07667 263.736 3.83904 260.058 2.3124C256.38 0.78576 252.438 2.15065e-06 248.458 0H137.495C133.514 -8.60225e-06 129.572 0.785733 125.894 2.31236C122.216 3.839 118.875 6.07661 116.06 8.89747C113.245 11.7183 111.012 15.0672 109.489 18.7528C107.965 22.4384 107.181 26.3887 107.181 30.378V318.326C107.181 326.383 110.375 334.109 116.06 339.806C121.745 345.503 129.455 348.704 137.494 348.704H248.457C256.497 348.704 264.207 345.503 269.892 339.806C275.577 334.109 278.771 326.383 278.771 318.326V120.226H280.682V82.865Z" fill="#3F3D56"/>
<path d="M249.68 7.90371H235.196C235.862 9.54027 236.116 11.3159 235.936 13.0741C235.756 14.8323 235.148 16.5192 234.164 17.9862C233.18 19.4531 231.851 20.6551 230.295 21.4863C228.738 22.3174 227.002 22.7522 225.238 22.7523H161.669C159.905 22.7522 158.169 22.3174 156.612 21.4863C155.056 20.6551 153.727 19.4531 152.743 17.9862C151.759 16.5192 151.151 14.8323 150.971 13.0741C150.791 11.3159 151.045 9.54024 151.711 7.90369H138.183C132.179 7.90368 126.421 10.2938 122.176 14.5483C117.93 18.8027 115.545 24.573 115.545 30.5896V318.115C115.545 321.094 116.131 324.044 117.268 326.797C118.406 329.549 120.074 332.05 122.176 334.156C124.278 336.263 126.773 337.934 129.52 339.074C132.266 340.214 135.21 340.801 138.183 340.801H249.68C252.653 340.801 255.597 340.214 258.343 339.074C261.09 337.934 263.585 336.263 265.687 334.156C267.789 332.05 269.457 329.549 270.594 326.797C271.732 324.044 272.318 321.094 272.318 318.115V30.5896C272.318 24.5729 269.933 18.8027 265.687 14.5483C261.442 10.2938 255.684 7.9037 249.68 7.90371Z" fill="white"/>
<path d="M196.074 248.437C187.863 248.445 179.732 246.83 172.145 243.684C164.558 240.539 157.664 235.925 151.859 230.107C146.053 224.289 141.449 217.381 138.31 209.777C135.172 202.174 133.56 194.025 133.568 185.797C133.556 174.243 136.738 162.912 142.761 153.06C148.783 143.208 157.411 135.22 167.688 129.982C175.137 126.184 183.269 123.918 191.605 123.319C199.941 122.719 208.313 123.797 216.227 126.49C230.242 131.277 242.108 140.893 249.709 153.627C257.311 166.361 260.155 181.386 257.736 196.025C255.317 210.665 247.791 223.968 236.499 233.566C225.206 243.164 210.881 248.434 196.074 248.437L196.074 248.437ZM196.074 125.614C186.591 125.586 177.24 127.834 168.802 132.169C161.426 135.935 154.907 141.188 149.653 147.599C144.4 154.01 140.526 161.44 138.274 169.423C136.022 177.405 135.441 185.768 136.568 193.987C137.694 202.205 140.504 210.101 144.82 217.18C149.137 224.258 154.867 230.366 161.651 235.119C168.435 239.873 176.126 243.17 184.242 244.803C192.358 246.436 200.723 246.37 208.812 244.609C216.902 242.848 224.54 239.43 231.249 234.571C234.492 232.225 237.491 229.558 240.201 226.61C248.126 218.017 253.378 207.295 255.315 195.757C257.252 184.218 255.79 172.364 251.107 161.645C246.424 150.927 238.723 141.81 228.949 135.41C219.174 129.011 207.75 125.606 196.074 125.614Z" fill="#F0F0F0"/>
<path d="M60.6339 130.206C62.3496 130.422 63.9973 131.012 65.4609 131.934C66.9245 132.857 68.1684 134.09 69.1049 135.547C70.0415 137.003 70.648 138.648 70.8817 140.365C71.1154 142.082 70.9706 143.83 70.4575 145.484L91.225 162.82L83.7907 178.037L54.806 153.143C52.0892 152.095 49.8503 150.084 48.5137 147.492C47.1771 144.901 46.8357 141.907 47.554 139.08C48.2724 136.253 50.0007 133.788 52.4114 132.152C54.8221 130.517 57.7478 129.824 60.634 130.206L60.6339 130.206Z" fill="#FFB6B6"/>
<path d="M254.593 202.501C254.177 198.014 252.455 189.948 250.994 186.966C246.502 175.185 217.482 165.502 213.585 164.254L212.596 153.241L172.273 148.893L167.158 162.976L152.697 168.413C151.715 168.78 150.826 169.36 150.094 170.112C149.362 170.864 148.806 171.769 148.464 172.761L135.489 176.52L122.686 180.229L78.2044 148.819L76.1043 150.195L62.0673 159.374L59.9017 160.79L117.464 212.834L138.847 207.807L154.927 204.016L156.3 209.6L152.746 229.219C163.043 239.542 176.673 245.85 191.191 247.013C205.709 248.176 220.166 244.117 231.969 235.565L241.103 227.442C247.47 220.543 252.169 212.27 254.838 203.262L254.593 202.501Z" fill="#E4E4E4"/>
<path d="M205.104 139.886C220.325 134.835 228.579 118.375 223.54 103.121C218.5 87.8669 202.075 79.5952 186.853 84.6457C171.632 89.6962 163.378 106.156 168.418 121.411C173.457 136.665 189.882 144.936 205.104 139.886Z" fill="#FFB6B6"/>
<path d="M173.046 79.0972C175.868 75.0579 180.104 72.2305 184.911 71.177C189.664 70.1973 194.611 71.1066 198.707 73.7129C203.162 71.9146 207.965 70.7216 212.684 71.3281C217.402 71.9346 222.027 74.5761 224.211 78.9278C224.67 80.0551 225.227 81.1397 225.876 82.1692C227.8 84.7413 231.375 85.0749 234.532 85.1984C232.936 86.1314 231.34 87.0644 229.743 87.9972C231.334 88.7402 232.925 89.4832 234.516 90.2263C232.351 91.0547 230.185 91.8832 228.02 92.7116C233.06 97.1515 234.279 105.053 232.37 111.678C230.564 117.95 226.421 123.23 221.796 127.75C220.893 124.377 221.886 120.72 222.547 117.228C223.245 113.539 223.357 109.224 220.779 106.619C219.04 104.862 216.489 104.331 214.084 103.905C201.951 101.755 189.706 100.298 177.409 99.541C175.763 99.3131 174.086 99.4847 172.52 100.041C169.527 101.374 168.325 105.034 167.458 108.279C167.042 102.583 167.374 96.8565 168.445 91.2466C169.265 86.953 170.558 82.6555 173.046 79.0972Z" fill="#2F2E41"/>
<path d="M210.782 277.949H176.465C175.273 277.949 174.13 277.474 173.287 276.63C172.444 275.785 171.971 274.639 171.971 273.445C171.971 272.251 172.444 271.105 173.287 270.261C174.13 269.416 175.273 268.942 176.465 268.942H210.782C211.973 268.942 213.116 269.416 213.959 270.261C214.802 271.105 215.275 272.251 215.275 273.445C215.275 274.639 214.802 275.785 213.959 276.63C213.116 277.474 211.973 277.949 210.782 277.949Z" fill="#F97310"/>
<path d="M98.1741 36.9493H3.78251C2.9127 36.9479 2.07896 36.6007 1.46439 35.9838C0.849816 35.3669 0.504639 34.5309 0.504639 33.6592C0.504639 32.7875 0.849816 31.9515 1.46439 31.3346C2.07896 30.7178 2.9127 30.3705 3.78251 30.3691H98.1741C99.0448 30.3691 99.8799 30.7158 100.496 31.3328C101.111 31.9498 101.457 32.7866 101.457 33.6592C101.457 34.5318 101.111 35.3686 100.496 35.9856C99.8799 36.6027 99.0448 36.9493 98.1741 36.9493Z" fill="#F97310"/>
<path d="M152.673 57.9629H3.78284C2.91217 57.9629 2.07717 57.6163 1.46152 56.9994C0.845865 56.3824 0.5 55.5456 0.5 54.6731C0.5 53.8005 0.845865 52.9637 1.46152 52.3468C2.07717 51.7298 2.91217 51.3832 3.78284 51.3832H152.673C153.544 51.3832 154.379 51.7298 154.994 52.3468C155.61 52.9637 155.956 53.8005 155.956 54.6731C155.956 55.5456 155.61 56.3824 154.994 56.9994C154.379 57.6163 153.544 57.9629 152.673 57.9629Z" fill="#F97310"/>
<path d="M124.061 77.7593H3.78284C2.91218 77.7593 2.07717 77.4127 1.46152 76.7957C0.845866 76.1788 0.5 75.342 0.5 74.4694C0.5 73.5969 0.845866 72.7601 1.46152 72.1431C2.07717 71.5262 2.91218 71.1796 3.78284 71.1796H124.061C124.932 71.1796 125.767 71.5262 126.382 72.1431C126.998 72.7601 127.344 73.5969 127.344 74.4694C127.344 75.342 126.998 76.1788 126.382 76.7957C125.767 77.4127 124.932 77.7593 124.061 77.7593Z" fill="#CACACA"/>
<path d="M71.6069 97.4833H3.78284C2.91218 97.4833 2.07717 97.1367 1.46152 96.5197C0.845866 95.9028 0.5 95.066 0.5 94.1934C0.5 93.3209 0.845866 92.4841 1.46152 91.8671C2.07717 91.2502 2.91218 90.9036 3.78284 90.9036H71.6069C72.4776 90.9036 73.3126 91.2502 73.9282 91.8671C74.5439 92.4841 74.8897 93.3209 74.8897 94.1934C74.8897 95.066 74.5439 95.9028 73.9282 96.5197C73.3126 97.1367 72.4776 97.4833 71.6069 97.4833Z" fill="#CACACA"/>
<path d="M109.075 117.206H3.78321C2.91344 117.205 2.07978 116.858 1.46525 116.241C0.850718 115.624 0.505554 114.788 0.505554 113.917C0.505554 113.045 0.850718 112.209 1.46525 111.592C2.07978 110.975 2.91344 110.628 3.78321 110.627H109.075C109.945 110.628 110.778 110.975 111.393 111.592C112.007 112.209 112.352 113.045 112.352 113.917C112.352 114.788 112.007 115.624 111.393 116.241C110.778 116.858 109.945 117.205 109.075 117.206Z" fill="#CACACA"/>
</g>
<defs>
<clipPath id="clip0_0_220">
<rect width="362" height="349" fill="white" transform="translate(0.5)"/>
</clipPath>
</defs>
</svg>
