<svg width="80" height="80" viewBox="0 0 80 80" fill="none" xmlns="http://www.w3.org/2000/svg">
<rect width="80" height="80" rx="5" fill="url(#paint0_linear_0_273)"/>
<path d="M54.8716 10C59.4902 10.1178 63.5509 11.4916 66.6108 15.081C72.7125 22.2361 70.7258 35.452 59.426 38.4824C53.9449 39.9455 48.7699 39.0852 44.3915 35.1911C40.9465 32.1287 39.6181 28.0595 39.9473 23.4836C40.5893 14.6096 47.4415 10.3519 53.9613 10.0724C54.2889 10.0505 54.6164 10.0185 54.8716 10ZM54.6576 18.4818C51.0693 18.4734 48.5822 21.0711 48.5756 24.8322C48.5756 28.6252 51.0282 31.2819 54.5605 31.297C58.1241 31.3105 60.7165 28.6185 60.7264 24.8894C60.7346 21.2024 58.1668 18.4902 54.6576 18.4818Z" fill="white"/>
<path d="M54.0731 69.9951C49.8017 69.8099 45.3592 68.165 42.3388 63.7187C37.2889 56.2875 39.7595 43.5632 51.6551 41.2399C56.4597 40.3021 60.978 41.1506 64.8609 44.2955C68.8327 47.5111 70.3486 51.8985 69.8795 56.971C69.1043 65.3434 62.3853 69.9833 54.0731 69.9951ZM48.5754 55.7404C48.5754 59.5014 51.0592 62.1918 54.5734 62.2187C58.0876 62.2456 60.7262 59.4997 60.7245 55.7724C60.7245 52.082 58.1518 49.358 54.6442 49.3344C51.1366 49.3109 48.582 51.9995 48.5754 55.7404V55.7404Z" fill="white"/>
<path d="M30.1335 60.1862C28.2999 60.1862 26.6934 60.1609 25.0869 60.1997C24.491 60.2131 24.2639 60.065 24.2803 59.4118C24.3198 57.4487 24.31 55.4857 24.2803 53.5193C24.2803 52.9654 24.3857 52.728 24.998 52.7314C29.5228 52.755 34.051 52.7432 38.5725 52.7449C38.9165 52.7449 39.3231 52.6472 39.3033 53.2499C39.1716 57.3191 38.5149 61.2367 36.0327 64.5837C33.837 67.5467 30.8676 69.1915 27.309 69.7589C22.4319 70.535 18.0338 69.471 14.3204 66.0551C11.8514 63.789 10.5807 60.8478 10.1396 57.5194C9.38574 51.8458 11.6309 45.2295 18.1951 42.3674C20.9976 41.1109 24.0807 40.6548 27.1164 41.0475C31.3598 41.5963 34.6007 43.7109 36.8146 47.4753C37.152 48.0511 37.1602 48.3255 36.5018 48.6538C34.5744 49.5949 32.6831 50.6135 30.7837 51.6118C30.4397 51.792 30.2273 51.8947 29.9327 51.4435C28.1287 48.7212 25.9313 47.8491 23.087 48.6858C20.4995 49.4468 18.6 52.0024 18.4683 54.8998C18.2955 58.7198 20.2789 61.6442 23.6401 62.326C26.0432 62.8142 28.2011 62.2401 30.1335 60.1862Z" fill="white"/>
<path d="M11.5285 25.2655C11.5285 20.9203 11.5565 16.5733 11.5054 12.2264C11.4956 11.3341 11.7737 11.1556 12.5753 11.1775C14.9895 11.228 17.4036 11.228 19.8177 11.1775C20.6407 11.1607 20.8975 11.3863 20.8909 12.255C20.8547 17.9185 20.8728 23.5836 20.8728 29.2488C20.8728 30.5957 20.8728 30.5957 22.239 30.5957H36.4702C37.5434 30.5957 37.5434 30.5957 37.5451 31.7287C37.5451 33.9443 37.5237 36.1598 37.5566 38.3754C37.5681 39.0808 37.3113 39.3047 36.648 39.3064C28.5278 39.3266 20.4114 39.3608 12.2988 39.4091C11.5663 39.4091 11.5219 39.0488 11.5252 38.4714C11.5351 34.0694 11.5362 29.6675 11.5285 25.2655Z" fill="white"/>
<defs>
<linearGradient id="paint0_linear_0_273" x1="1.26568e-07" y1="30.5342" x2="114.637" y2="32.3295" gradientUnits="userSpaceOnUse">
<stop stop-color="#F01928"/>
<stop offset="1" stop-color="#FA770F"/>
</linearGradient>
</defs>
</svg>
